<?xml version="1.0" encoding="UTF-8"?> <svg xmlns="http://www.w3.org/2000/svg" xmlns:xlink="http://www.w3.org/1999/xlink" id="Group_4" data-name="Group 4" width="262.413" height="45.059" viewBox="0 0 262.413 45.059"><defs><clipPath id="clip-path"><rect id="Rectangle_2" data-name="Rectangle 2" width="262.413" height="45.059" fill="none"></rect></clipPath></defs><g id="Group_3" data-name="Group 3" clip-path="url(#clip-path)"><path id="Path_15" data-name="Path 15" d="M224.23,77.3l-2.171-2.171a10.241,10.241,0,1,1,5.229-8.928,10.455,10.455,0,0,1-1.712,5.687l2.049,2.018Zm-5.412-5.412-1.8-1.8,3.363-3.394,2.049,2.049a5.614,5.614,0,0,0,.581-2.538,5.962,5.962,0,1,0-10.182,4.22,6.049,6.049,0,0,0,4.22,1.743,5.668,5.668,0,0,0,1.774-.275" transform="translate(-153.382 -41.501)" fill="#fcfcfc"></path><path id="Path_16" data-name="Path 16" d="M294.516,71.816h3.975v7.95c0,1.04.7,3.853,3.578,3.853,3.149,0,3.577-2.843,3.577-3.883V71.816h4.281V87.624h-4.281V85.973a4.816,4.816,0,0,1-3.853,1.651,7.321,7.321,0,0,1-7.277-7.553Z" transform="translate(-218.439 -53.265)" fill="#fcfcfc"></path><path id="Path_17" data-name="Path 17" d="M378.492,63.907a7.884,7.884,0,0,1-12.9,6.024v1.8h-4.281l-.03-21.342h4.28v7.461a7.853,7.853,0,0,1,12.934,6.054m-3.975-.03a3.913,3.913,0,0,0-1.131-2.752,3.86,3.86,0,0,0-2.752-1.131,3.964,3.964,0,0,0-2.752,1.1,3.861,3.861,0,0,0-1.131,2.752,3.711,3.711,0,0,0,1.1,2.752,4.022,4.022,0,0,0,2.752,1.162,3.861,3.861,0,0,0,2.752-1.131,4.022,4.022,0,0,0,1.162-2.752" transform="translate(-267.956 -37.375)" fill="#fcfcfc"></path><path id="Path_18" data-name="Path 18" d="M437.616,54.118h-4.25V50.51h4.25Zm.03,17.7h-4.281V56.106h4.281Z" transform="translate(-321.422 -37.463)" fill="#fcfcfc"></path><path id="Path_19" data-name="Path 19" d="M468.385,60.531h-3.516V72h-4.281V60.531h-3.547V56.25h3.547v-5.5h4.281v5.5h3.516Z" transform="translate(-338.982 -37.638)" fill="#fcfcfc"></path><path id="Path_20" data-name="Path 20" d="M555.685,71.509a10.233,10.233,0,1,1-6.635-18.04,10.188,10.188,0,0,1,6.635,2.446l-3.058,3.027a5.92,5.92,0,0,0-3.578-1.193,5.85,5.85,0,0,0-4.189,1.743,5.919,5.919,0,0,0-1.743,4.22,5.951,5.951,0,0,0,5.932,5.932,5.922,5.922,0,0,0,3.578-1.193Z" transform="translate(-399.649 -39.657)" fill="#fcfcfc"></path><path id="Path_21" data-name="Path 21" d="M621.772,71.816V87.624h-4.281V85.851a4.988,4.988,0,0,1-3.975,1.712,7.874,7.874,0,0,1-.092-15.747,5.216,5.216,0,0,1,4.067,1.743V71.816Zm-4.434,7.858a3.768,3.768,0,0,0-1.162-2.752,3.691,3.691,0,0,0-2.721-1.1,3.87,3.87,0,1,0,3.883,3.853" transform="translate(-449.164 -53.265)" fill="#fcfcfc"></path><path id="Path_22" data-name="Path 22" d="M691.434,79.88a7.882,7.882,0,0,1-7.828,7.919,4.968,4.968,0,0,1-4.006-1.682V93.67H675.32V72.083H679.6v1.651a5.276,5.276,0,0,1,3.914-1.682,7.882,7.882,0,0,1,7.919,7.828m-4.006.03a3.862,3.862,0,0,0-1.131-2.752,3.963,3.963,0,0,0-2.752-1.1,3.861,3.861,0,0,0-2.752,1.131,3.914,3.914,0,0,0-1.131,2.752,4.022,4.022,0,0,0,1.162,2.752,3.861,3.861,0,0,0,2.752,1.131,4.023,4.023,0,0,0,2.752-1.162,3.712,3.712,0,0,0,1.1-2.752" transform="translate(-500.877 -53.44)" fill="#fcfcfc"></path><path id="Path_23" data-name="Path 23" d="M782.7,71.667v4.281H768.36V56.073h4.77V71.667Z" transform="translate(-569.884 -41.589)" fill="#fcfcfc"></path><path id="Path_24" data-name="Path 24" d="M840.643,71.816V87.624h-4.281V85.851a4.988,4.988,0,0,1-3.975,1.712,7.874,7.874,0,0,1-.092-15.747,5.216,5.216,0,0,1,4.067,1.743V71.816Zm-4.434,7.858a3.768,3.768,0,0,0-1.162-2.752,3.691,3.691,0,0,0-2.721-1.1,3.87,3.87,0,1,0,3.883,3.853" transform="translate(-611.498 -53.265)" fill="#fcfcfc"></path><path id="Path_25" data-name="Path 25" d="M911.4,63.907a7.884,7.884,0,0,1-12.9,6.024v1.8h-4.281l-.031-21.342h4.281v7.461A7.853,7.853,0,0,1,911.4,63.907m-3.975-.03a3.914,3.914,0,0,0-1.131-2.752,3.862,3.862,0,0,0-2.752-1.131,3.965,3.965,0,0,0-2.752,1.1,3.861,3.861,0,0,0-1.131,2.752,3.712,3.712,0,0,0,1.1,2.752,4.022,4.022,0,0,0,2.752,1.162,3.862,3.862,0,0,0,2.752-1.131,4.023,4.023,0,0,0,1.162-2.752" transform="translate(-663.21 -37.375)" fill="#fcfcfc"></path><path id="Path_26" data-name="Path 26" d="M969.917,86.169a5.869,5.869,0,0,1-1.957-1.254,5.118,5.118,0,0,1-1.59-4.1v-.336l3.425.061h.275v.245a3.028,3.028,0,0,0,.336,1.254,2.494,2.494,0,0,0,2.293.887,4.72,4.72,0,0,0,2.109-.336c.489-.245.55-.55.55-.734,0-.978-1.773-1.315-2.813-1.437a10.2,10.2,0,0,1-3.058-.734,5.7,5.7,0,0,1-2.018-1.345,4.176,4.176,0,0,1-1.1-2.874,4.511,4.511,0,0,1,1.1-3.058c1.1-1.254,2.874-1.9,5.29-1.9,3.18,0,4.77,1.407,5.535,2.6a5.8,5.8,0,0,1,.856,3v.275h-3.7V76.11a1.83,1.83,0,0,0-.275-.978,2.912,2.912,0,0,0-2.416-.918c-1.284,0-2.568.336-2.568,1.07a.988.988,0,0,0,.611.887,5.882,5.882,0,0,0,2.171.581,7.525,7.525,0,0,1,5.106,2.232,4.353,4.353,0,0,1,1.07,2.874,4.3,4.3,0,0,1-1.039,2.966,4.813,4.813,0,0,1-2.141,1.376,10.294,10.294,0,0,1-3.271.459,7.283,7.283,0,0,1-2.783-.489" transform="translate(-716.738 -52.299)" fill="#fcfcfc"></path><path id="Path_27" data-name="Path 27" d="M39.04,40.21l-3.971-2.3v.006L33.482,37l0,0-1.471-.85v.019l-3.971-2.3v.006l-1.587-.918,0,0-1.679-.971-.01.006-.876-.506-1.587-.918-.005,0-.278-.159-4.554-2.633v.006l-.828-.479.015-.009-2.705-1.561V19.318l5.564-3.211,5.564,3.211v6.414l-.007,0,1.987,1.143.8.459.464.267.608.349.094.054,2.988,1.719,2.073,1.192.8.459.463.267.608.349.094.054,2.988,1.719v-22.5L38,10.663,29.28,5.629h-.008L20.55.594,19.52,0,18.49.594,9.768,5.629H9.76L1.038,10.663,0,11.264v22.53l1.038.6L9.76,39.428h.008l8.722,5.035,1.03.595,1.03-.595,8.722-5.035h.008l.052-.029L33.2,41.624l4.147,2.385,1.693.974ZM34.887,26.6l-3.075-1.778v.006l-1.87-1.081v.007l-.7-.406V16.927l-1.047-.6-3.816-2.2,0,0L20.559,11.91l-1.038-.6-1.038.6L14.66,14.117l0,0-3.816,2.2-1.047.6v11.2l1.047.6,3.816,2.2,0,0,3.822,2.207,1.04.6,3.107,1.787,2.565,1.475L19.52,40.283l-7.683-4.44L4.153,31.406V13.652l7.681-4.44L19.52,4.774,27.2,9.214l7.683,4.438V26.6Z" transform="translate(0 0.001)" fill="#2affbd" fill-rule="evenodd"></path><path id="Path_28" data-name="Path 28" d="M90.541,144.311l4.133,2.389,1.751-1.011h.008l.051-.029-4.138-2.392Z" transform="translate(-67.153 -106.26)" fill="#1dbc87" fill-rule="evenodd"></path></g></svg> 