<?xml version="1.0" encoding="UTF-8"?> <svg xmlns="http://www.w3.org/2000/svg" xmlns:xlink="http://www.w3.org/1999/xlink" width="768" height="768" viewBox="0 0 768 768"><defs><clipPath id="clip-_404-pic"><rect width="768" height="768"></rect></clipPath></defs><g id="_404-pic" data-name="404-pic" clip-path="url(#clip-_404-pic)"><path id="Path_1" data-name="Path 1" d="M191.362-78.952v60.5H167.834V15.831H101.956V-18.452H3.14v-60.5L68.009-219.446h76.3L78.429-78.952h23.528v-32.939h65.878v32.939Zm209.4,66.886q-25.88,33.275-73.272,33.275T254.214-12.234q-25.88-33.443-25.88-89.573t25.88-89.573q25.88-33.443,73.272-33.443t73.272,33.443q25.881,33.443,25.881,89.573T400.758-12.066Zm-105.2-89.741Q295.556-44,327.486-44t31.93-57.811q0-57.811-31.93-57.811T295.556-101.808ZM653.513-78.952v60.5H629.986V15.831H564.108V-18.452H465.292v-60.5l64.869-140.494h76.3L540.58-78.952h23.528v-32.939h65.878v32.939Z" transform="translate(55.86 485.824)" fill="#171717"></path></g></svg> 