<?xml version="1.0" encoding="utf-8"?>
<svg id="Group_4" data-name="Group 4" width="262.413" height="45.059" viewBox="0 0 262.413 45.059" xmlns="http://www.w3.org/2000/svg">
  <defs>
    <clipPath id="clip-path">
      <rect id="Rectangle_2" data-name="Rectangle 2" width="262.413" height="45.059" fill="none"/>
    </clipPath>
  </defs>
  <g>
    <path id="Path_15" data-name="Path 15" d="M 70.848 35.799 L 68.677 33.628 C 61.802 37.486 53.329 32.455 53.425 24.572 C 53.521 16.689 62.114 11.867 68.893 15.891 C 72.002 17.737 73.907 21.085 73.906 24.7 C 73.897 26.721 73.302 28.697 72.194 30.387 L 74.243 32.405 L 70.848 35.799 Z M 65.436 30.387 L 63.636 28.587 L 66.999 25.193 L 69.048 27.242 C 69.438 26.453 69.637 25.584 69.629 24.704 C 69.622 20.114 64.65 17.253 60.679 19.553 C 57.292 21.515 56.682 26.153 59.447 28.924 C 60.572 30.034 62.087 30.66 63.667 30.667 C 64.269 30.67 64.868 30.577 65.441 30.392" clip-path="url(#clip-path)" style="fill-opacity: 0.75;"/>
    <path id="Path_16" data-name="Path 16" d="M 76.077 18.551 L 80.052 18.551 L 80.052 26.501 C 80.052 27.541 80.752 30.354 83.63 30.354 C 86.779 30.354 87.207 27.511 87.207 26.471 L 87.207 18.551 L 91.488 18.551 L 91.488 34.359 L 87.207 34.359 L 87.207 32.708 C 86.242 33.818 84.823 34.426 83.354 34.359 C 79.236 34.336 75.946 30.922 76.077 26.806 L 76.077 18.551 Z" clip-path="url(#clip-path)" style="fill-opacity: 0.75;"/>
    <path id="Path_17" data-name="Path 17" d="M 110.536 26.532 C 110.491 32.601 103.893 36.345 98.66 33.272 C 98.3 33.061 97.958 32.821 97.636 32.556 L 97.636 34.356 L 93.355 34.356 L 93.325 13.014 L 97.605 13.014 L 97.605 20.475 C 102.214 16.563 109.329 19.108 110.412 25.056 C 110.501 25.542 110.543 26.035 110.539 26.529 M 106.564 26.499 C 106.564 25.469 106.158 24.48 105.433 23.747 C 104.704 23.017 103.713 22.61 102.681 22.616 C 101.656 22.613 100.67 23.007 99.929 23.716 C 99.199 24.445 98.792 25.436 98.798 26.468 C 98.767 27.498 99.165 28.495 99.898 29.22 C 100.632 29.946 101.618 30.362 102.65 30.382 C 103.682 30.388 104.673 29.981 105.402 29.251 C 106.128 28.517 106.544 27.531 106.564 26.499" clip-path="url(#clip-path)" style="fill-opacity: 0.75;"/>
    <path id="Path_18" data-name="Path 18" d="M 116.194 16.655 L 111.944 16.655 L 111.944 13.047 L 116.194 13.047 L 116.194 16.655 Z M 116.224 34.355 L 111.943 34.355 L 111.943 18.643 L 116.224 18.643 L 116.224 34.355 Z" clip-path="url(#clip-path)" style="fill-opacity: 0.75;"/>
    <path id="Path_19" data-name="Path 19" d="M 129.403 22.893 L 125.887 22.893 L 125.887 34.362 L 121.606 34.362 L 121.606 22.893 L 118.059 22.893 L 118.059 18.612 L 121.606 18.612 L 121.606 13.112 L 125.887 13.112 L 125.887 18.612 L 129.403 18.612 L 129.403 22.893 Z" clip-path="url(#clip-path)" style="fill-opacity: 0.75;"/>
    <path id="Path_20" data-name="Path 20" d="M 156.036 31.852 C 150.026 36.945 140.757 33.622 139.352 25.871 C 138.214 19.598 143.026 13.824 149.401 13.812 C 151.834 13.809 154.187 14.677 156.036 16.258 L 152.978 19.285 C 151.947 18.508 150.691 18.089 149.4 18.092 C 147.826 18.086 146.316 18.714 145.211 19.835 C 144.089 20.952 143.461 22.472 143.468 24.055 C 143.478 27.327 146.128 29.977 149.4 29.987 C 150.691 29.99 151.947 29.571 152.978 28.794 L 156.036 31.852 Z" clip-path="url(#clip-path)" style="fill-opacity: 0.75;"/>
    <path id="Path_21" data-name="Path 21" d="M 172.608 18.551 L 172.608 34.359 L 168.327 34.359 L 168.327 32.586 C 167.331 33.732 165.868 34.362 164.352 34.298 C 158.291 34.275 154.527 27.699 157.578 22.461 C 158.966 20.077 161.501 18.594 164.26 18.551 C 165.807 18.5 167.297 19.138 168.327 20.294 L 168.327 18.551 L 172.608 18.551 Z M 168.174 26.409 C 168.182 25.371 167.762 24.375 167.012 23.657 C 166.296 22.93 165.311 22.532 164.291 22.557 C 161.312 22.567 159.461 25.798 160.959 28.373 C 162.457 30.948 166.181 30.936 167.662 28.351 C 168 27.76 168.177 27.091 168.174 26.41" clip-path="url(#clip-path)" style="fill-opacity: 0.75;"/>
    <path id="Path_22" data-name="Path 22" d="M 190.557 26.44 C 190.577 30.787 187.075 34.329 182.729 34.359 C 181.206 34.443 179.729 33.823 178.723 32.677 L 178.723 40.23 L 174.443 40.23 L 174.443 18.643 L 178.723 18.643 L 178.723 20.294 C 179.733 19.208 181.154 18.598 182.637 18.612 C 186.983 18.591 190.526 22.094 190.556 26.44 M 186.55 26.47 C 186.556 25.438 186.148 24.447 185.419 23.718 C 184.678 23.009 183.692 22.615 182.667 22.618 C 181.635 22.612 180.644 23.019 179.915 23.749 C 179.19 24.482 178.784 25.471 178.784 26.501 C 178.804 27.533 179.22 28.519 179.946 29.253 C 180.675 29.983 181.666 30.39 182.698 30.384 C 183.73 30.364 184.716 29.948 185.45 29.222 C 186.183 28.497 186.581 27.5 186.55 26.47" clip-path="url(#clip-path)" style="fill-opacity: 0.75;"/>
    <path id="Path_23" data-name="Path 23" d="M 212.816 30.078 L 212.816 34.359 L 198.476 34.359 L 198.476 14.484 L 203.246 14.484 L 203.246 30.078 L 212.816 30.078 Z" clip-path="url(#clip-path)" style="fill-opacity: 0.75;"/>
    <path id="Path_24" data-name="Path 24" d="M 229.145 18.551 L 229.145 34.359 L 224.864 34.359 L 224.864 32.586 C 223.868 33.732 222.405 34.362 220.889 34.298 C 214.828 34.275 211.064 27.699 214.115 22.461 C 215.503 20.077 218.038 18.594 220.797 18.551 C 222.344 18.5 223.834 19.138 224.864 20.294 L 224.864 18.551 L 229.145 18.551 Z M 224.711 26.409 C 224.719 25.371 224.299 24.375 223.549 23.657 C 222.833 22.93 221.848 22.532 220.828 22.557 C 217.849 22.567 215.998 25.798 217.496 28.373 C 218.994 30.948 222.718 30.936 224.199 28.351 C 224.537 27.76 224.714 27.091 224.711 26.41" clip-path="url(#clip-path)" style="fill-opacity: 0.75;"/>
    <path id="Path_25" data-name="Path 25" d="M 248.19 26.532 C 248.145 32.601 241.547 36.345 236.314 33.272 C 235.954 33.061 235.612 32.821 235.29 32.556 L 235.29 34.356 L 231.009 34.356 L 230.978 13.014 L 235.259 13.014 L 235.259 20.475 C 239.87 16.566 246.984 19.114 248.064 25.062 C 248.152 25.547 248.194 26.039 248.19 26.532 M 244.215 26.502 C 244.215 25.472 243.809 24.483 243.084 23.75 C 242.354 23.021 241.364 22.613 240.332 22.619 C 239.307 22.616 238.321 23.01 237.58 23.719 C 236.85 24.448 236.443 25.439 236.449 26.471 C 236.418 27.501 236.816 28.498 237.549 29.223 C 238.283 29.949 239.268 30.365 240.301 30.385 C 241.333 30.391 242.323 29.983 243.053 29.254 C 243.779 28.52 244.195 27.534 244.215 26.502" clip-path="url(#clip-path)" style="fill-opacity: 0.75;"/>
    <path id="Path_26" data-name="Path 26" d="M 253.179 33.87 C 252.449 33.587 251.784 33.16 251.222 32.616 C 250.102 31.558 249.518 30.052 249.632 28.516 L 249.632 28.18 L 253.057 28.241 L 253.332 28.241 L 253.332 28.486 C 253.352 28.923 253.467 29.351 253.668 29.74 C 254.223 30.418 255.094 30.755 255.961 30.627 C 256.68 30.678 257.402 30.563 258.07 30.291 C 258.559 30.046 258.62 29.741 258.62 29.557 C 258.62 28.579 256.847 28.242 255.807 28.12 C 254.756 28.035 253.724 27.787 252.749 27.386 C 251.988 27.088 251.299 26.629 250.731 26.041 C 250.012 25.258 249.618 24.23 249.631 23.167 C 249.605 22.046 249.997 20.956 250.731 20.109 C 251.831 18.855 253.605 18.209 256.021 18.209 C 259.201 18.209 260.791 19.616 261.556 20.809 C 262.11 21.712 262.406 22.75 262.412 23.809 L 262.412 24.084 L 258.712 24.084 L 258.712 23.811 C 258.714 23.466 258.619 23.127 258.437 22.833 C 257.819 22.167 256.925 21.827 256.021 21.915 C 254.737 21.915 253.453 22.251 253.453 22.985 C 253.463 23.375 253.703 23.723 254.064 23.872 C 254.743 24.203 255.481 24.401 256.235 24.453 C 258.16 24.516 259.987 25.315 261.341 26.685 C 262.034 27.481 262.415 28.503 262.411 29.559 C 262.451 30.643 262.08 31.703 261.372 32.525 C 260.795 33.167 260.055 33.643 259.231 33.901 C 258.172 34.229 257.068 34.384 255.96 34.36 C 255.009 34.38 254.064 34.214 253.177 33.871" clip-path="url(#clip-path)" style="fill-opacity: 0.75;"/>
    <path id="Path_27" data-name="Path 27" d="M 39.04 40.211 L 35.069 37.911 L 35.069 37.917 L 33.482 37.001 L 32.011 36.151 L 32.011 36.17 L 28.04 33.87 L 28.04 33.876 L 26.453 32.958 L 24.774 31.987 L 24.764 31.993 L 23.888 31.487 L 22.301 30.569 L 22.296 30.569 L 22.018 30.41 L 17.464 27.777 L 17.464 27.783 L 16.636 27.304 L 16.651 27.295 L 13.946 25.734 L 13.946 19.319 L 19.51 16.108 L 25.074 19.319 L 25.074 25.733 L 25.067 25.733 L 27.054 26.876 L 27.854 27.335 L 28.318 27.602 L 28.926 27.951 L 29.02 28.005 L 32.008 29.724 L 34.081 30.916 L 34.881 31.375 L 35.344 31.642 L 35.952 31.991 L 36.046 32.045 L 39.034 33.764 L 39.034 11.264 L 38 10.664 L 29.28 5.63 L 29.272 5.63 L 20.55 0.595 L 19.52 0.001 L 18.49 0.595 L 9.768 5.63 L 9.76 5.63 L 1.038 10.664 L 0 11.265 L 0 33.795 L 1.038 34.395 L 9.76 39.429 L 9.768 39.429 L 18.49 44.464 L 19.52 45.059 L 20.55 44.464 L 29.272 39.429 L 29.28 39.429 L 29.332 39.4 L 33.2 41.625 L 37.347 44.01 L 39.04 44.984 L 39.04 40.211 Z M 34.887 26.601 L 31.812 24.823 L 31.812 24.829 L 29.942 23.748 L 29.942 23.755 L 29.242 23.349 L 29.242 16.928 L 28.195 16.328 L 24.379 14.128 L 20.559 11.911 L 19.521 11.311 L 18.483 11.911 L 14.66 14.118 L 10.844 16.318 L 9.797 16.918 L 9.797 28.118 L 10.844 28.718 L 14.66 30.918 L 18.482 33.125 L 19.522 33.725 L 22.629 35.512 L 25.194 36.987 L 19.52 40.284 L 11.837 35.844 L 4.153 31.407 L 4.153 13.653 L 11.834 9.213 L 19.52 4.775 L 27.2 9.215 L 34.883 13.653 L 34.883 26.601 L 34.887 26.601 Z" fill="#2affbd" fill-rule="evenodd" clip-path="url(#clip-path)"/>
    <path id="Path_28" data-name="Path 28" d="M 23.388 38.051 L 27.521 40.44 L 29.272 39.429 L 29.28 39.429 L 29.331 39.4 L 25.193 37.008 L 23.388 38.051 Z" fill="#1dbc87" fill-rule="evenodd" clip-path="url(#clip-path)"/>
  </g>
</svg>